<svg xmlns="http://www.w3.org/2000/svg" viewBox="0 0 240 145"><rect width="240" height="145" fill="#edc496"/><ellipse cx="120" cy="102" rx="73" ry="14" fill="#d3a071"/><path d="m57 83 58-34q10-6 20 0l48 30q13 9 4 19-45 31-105 12-34-11-25-27z" fill="#cf762e"/><path d="m64 82 53-27q9-5 17 0l47 28q7 5 1 10-44 27-99 9-24-8-19-20z" fill="#f2bd52"/><path d="M71 83q58 20 108-1" fill="none" stroke="#b95b27" stroke-width="4" stroke-dasharray="3 5"/><g fill="#fff0c9"><circle cx="104" cy="72" r="3"/><circle cx="131" cy="82" r="3"/><circle cx="151" cy="72" r="3"/></g></svg>
